<?xml version="1.0" encoding="UTF-8"?><svg id="b" xmlns="http://www.w3.org/2000/svg" width="500" height="402.96" viewBox="0 0 500 402.96"><defs><style>.d{fill:#072b49;}.e{fill:#ff6413;}</style></defs><g id="c"><polygon class="e" points="100.98 0 150.75 0 239.83 154.36 210.13 205.81 96.17 8.42 100.98 0"/><polygon class="e" points="244.88 266.04 220.11 223 309.19 68.64 368.58 68.64 254.61 266.04 244.88 266.04"/><polygon class="e" points="403.32 8.42 378.56 51.45 200.27 51.45 170.58 0 398.51 0 403.32 8.42"/><path class="d" d="m156.48,350.46h9.33v-7.7c0-5.99,4.62-8.12,12.14-8.12h4.36v-8.12h-4.36c-6.41,0-9.49,1.28-11.98,4.62h-.26v-6.33c0-6.84,4.79-11.29,12.32-11.29s12.15,4.45,12.15,11.29v25.66h9.41v-25.66c0-11.63-8.47-19.42-21.55-19.42s-21.55,7.78-21.55,19.42v25.66h0Z"/><path class="d" d="m129.31,351.32c11.72,0,18.48-5.13,18.48-13.6,0-9.41-6.76-11.72-16.34-13.6-8.55-1.71-11.21-3.08-11.21-6.07,0-3.16,3.51-4.71,7.87-4.71,5.31,0,9.49,2.31,9.75,6.75h9.92c-.43-9.15-8.64-14.71-18.9-14.71-9.41,0-17.96,4.45-17.96,13.35,0,9.49,8.55,11.98,18.48,13.86,6.93,1.28,9.07,2.31,9.07,5.3,0,3.85-4.1,5.47-8.98,5.47-6.24,0-10.26-2.74-10.26-6.75h-9.92c.43,9.15,8.9,14.71,20.02,14.71"/><path class="d" d="m84.06,351.32c11.72,0,18.47-5.13,18.47-13.6,0-9.41-6.75-11.72-16.34-13.6-8.55-1.71-11.21-3.08-11.21-6.07,0-3.16,3.51-4.71,7.87-4.71,5.31,0,9.5,2.31,9.75,6.75h9.92c-.43-9.15-8.64-14.71-18.9-14.71-9.41,0-17.96,4.45-17.96,13.35,0,9.49,8.55,11.98,18.47,13.86,6.93,1.28,9.07,2.31,9.07,5.3,0,3.85-4.1,5.47-8.98,5.47-6.24,0-10.26-2.74-10.26-6.75h-9.92c.43,9.15,8.9,14.71,20.02,14.71"/><polygon class="d" points="10.26 350.46 18.82 350.46 29.43 318.22 29.59 318.22 40.2 350.46 48.76 350.46 59.02 306.16 49.61 306.16 43.45 335.5 43.11 335.5 33.7 306.16 25.32 306.16 15.91 335.5 15.57 335.5 9.41 306.16 0 306.16 10.26 350.46"/><polygon class="d" points="307.95 316.17 307.95 310.82 299.46 310.82 299.46 323.14 322.71 323.14 322.71 316.17 307.95 316.17"/><polygon class="d" points="307.95 338.2 307.95 332.85 299.46 332.85 299.46 345.17 322.71 345.17 322.71 338.2 307.95 338.2"/><path class="d" d="m476,351.64c6.09,0,11.65-1.97,14.66-6.51h.26v5.66h9.09v-44.4h-9.43v24.43c0,7.46-4.46,12.6-12.34,12.6-7.11,0-11.31-4.2-11.31-12.6v-24.43h-9.43v25.29c0,12.94,7.03,19.97,18.51,19.97"/><path class="d" d="m356.99,323.32h10.16v20.13c0,4.05-3.28,7.33-7.33,7.33h-31.77v-44.59h9.47v37.39h19.44c.31,0,.55-.25.55-.55v-11.7h-14.95v-8h4.71l9.81-17.13h10.24l-10.33,17.13h0Z"/><path class="d" d="m440.82,323.32h10.16v20.13c0,4.05-3.28,7.33-7.33,7.33h-31.77v-44.59h9.47v37.39h19.44c.31,0,.55-.25.55-.55v-11.7h-14.95v-8h4.71l9.81-17.13h10.24l-10.33,17.13h0Z"/><path class="d" d="m247.61,294.76v43.69c0,6.81-5.52,12.34-12.34,12.34h-14.93c-6.81,0-12.34-5.52-12.34-12.34v-32.25h9.59v31.85c0,2.12,1.72,3.84,3.84,3.84h12.58c2.12,0,3.84-1.72,3.84-3.84v-43.28h9.76Z"/><path class="d" d="m396.09,350.79h9.59v-28.77c0-9.95-5.99-16.54-17.86-16.54-11.03,0-17.26,7.19-17.5,15.95h9.23c.36-4.55,3.12-8.03,8.27-8.03,5.87,0,8.27,3.59,8.27,9.59v27.81h0Z"/><path class="d" d="m274.27,351.36c11.72,0,18.48-5.13,18.48-13.6,0-9.41-6.76-11.72-16.34-13.6-8.55-1.71-11.21-3.08-11.21-6.07,0-3.16,3.51-4.71,7.87-4.71,5.31,0,9.49,2.31,9.75,6.75h9.92c-.43-9.15-8.64-14.71-18.9-14.71-9.41,0-17.96,4.45-17.96,13.35,0,9.49,8.55,11.98,18.48,13.86,6.93,1.28,9.07,2.31,9.07,5.3,0,3.85-4.1,5.47-8.98,5.47-6.24,0-10.26-2.74-10.26-6.75h-9.92c.43,9.15,8.9,14.71,20.02,14.71"/><path class="e" d="m103.86,382.44c0,6.15-4.26,9.82-11.42,9.82h-4.13v10.28h-6.24v-29.92h10.37c7.16,0,11.42,3.67,11.42,9.82h0Zm-5.65,0c0-3.2-2.11-5.1-5.78-5.1h-4.13v10.2h4.13c3.66,0,5.78-1.9,5.78-5.1Z"/><path class="e" d="m129.02,397.82v4.72h-20.52v-29.92h20.1v4.72h-13.86v7.92h13.02v4.63h-13.02v7.92h14.29Z"/><path class="e" d="m132.82,387.58c0-9.23,6.11-15.38,15.34-15.38s15.34,6.15,15.34,15.38-6.11,15.38-15.34,15.38-15.34-6.15-15.34-15.38Zm24.36,0c0-6.4-3.54-10.58-9.02-10.58s-9.02,4.17-9.02,10.58,3.54,10.58,9.02,10.58,9.02-4.17,9.02-10.58Z"/><path class="e" d="m190.76,382.44c0,6.15-4.26,9.82-11.42,9.82h-4.13v10.28h-6.24v-29.92h10.37c7.16,0,11.42,3.67,11.42,9.82h0Zm-5.65,0c0-3.2-2.11-5.1-5.78-5.1h-4.13v10.2h4.13c3.66,0,5.78-1.9,5.78-5.1Z"/><path class="e" d="m215.08,397.82v4.72h-19.68v-29.92h6.24v25.2h13.44Z"/><path class="e" d="m240.24,397.82v4.72h-20.52v-29.92h20.1v4.72h-13.86v7.92h13.02v4.63h-13.02v7.92h14.29Z"/><path class="e" d="m245.93,372.62h5.81l-5.81,13.36h-3.71l3.71-13.36Z"/><path class="e" d="m255.12,400.31l1.73-4.72c3.16,1.52,6.36,2.57,9.65,2.57,3.96,0,5.78-1.56,5.78-3.96,0-2.78-2.4-3.37-7.2-4.51-4.21-1.01-9.19-2.23-9.19-8.47,0-5.81,4.38-9.02,11.71-9.02,3.5,0,6.83.67,9.52,1.94l-1.9,4.46c-2.4-1.1-4.76-1.6-7.2-1.6-3.12,0-5.81.84-5.81,3.54,0,2.49,2.36,3.08,6.83,4.26,6.4,1.69,9.57,3.12,9.57,8.43,0,6.32-4.43,9.74-11.8,9.74-4.39,0-8.85-1.22-11.67-2.66h0Z"/><path class="e" d="m317.15,382.44c0,6.15-4.26,9.82-11.42,9.82h-4.13v10.28h-6.24v-29.92h10.37c7.16,0,11.42,3.67,11.42,9.82h0Zm-5.65,0c0-3.2-2.11-5.1-5.78-5.1h-4.13v10.2h4.13c3.66,0,5.78-1.9,5.78-5.1Z"/><path class="e" d="m336.28,396.72h-12.3l-2.11,5.81h-6.4l11.46-29.92h6.66l11.46,29.92h-6.66l-2.11-5.81Zm-1.64-4.55l-4.51-12.6-4.51,12.6h9.02Z"/><path class="e" d="m374.21,398.03v4.51h-1.27c-4.81,0-6.24-.72-8.51-4.26l-3.75-5.78c-.89-1.39-1.47-1.77-2.74-1.77h-2.02v11.8h-6.24v-29.92h11.55c6.74,0,10.66,3.29,10.66,8.93,0,4.17-2.49,7.2-6.7,8.13.5.38,1.01.97,1.64,1.9l2.11,3.12c2.02,2.99,2.49,3.33,4.51,3.33h.76Zm-12.98-11.67c3.16,0,5.01-1.64,5.01-4.51s-1.85-4.51-5.01-4.51h-5.31v9.02h5.31Z"/><path class="e" d="m384.96,377.34h-9.27v-4.72h24.78v4.72h-9.27v25.2h-6.24v-25.2Z"/><path class="e" d="m418.8,390.53v12.01h-6.07v-12.01l-10.79-17.91h6.66l7.16,12.68,7.16-12.68h6.66l-10.79,17.91h0Z"/></g></svg>