<?xml version="1.0" encoding="UTF-8" standalone="no"?>
<!-- Created with Inkscape (http://www.inkscape.org/) -->

<svg
   width="210mm"
   height="297mm"
   viewBox="0 0 210 297"
   version="1.1"
   id="svg1"
   xml:space="preserve"
   xmlns="http://www.w3.org/2000/svg"
   xmlns:svg="http://www.w3.org/2000/svg"><defs
     id="defs1" /><g
     id="layer1"><path
       style="display:inline;fill:#f78185;stroke:none;stroke-width:1.23515"
       d="m 83.844174,44.818112 c 1.27e-4,1.081401 -0.108088,2.095356 0.730839,2.910091 0.813161,0.789741 2.835347,1.560437 2.835956,2.893825 3.68e-4,0.823407 -0.886941,1.421748 -1.257299,2.088271 -0.54498,0.9808 -0.429725,2.213869 -0.882563,3.24188 -0.36775,0.834856 -1.210525,1.378673 -1.325183,2.330624 -0.260319,2.161215 3.10856,1.750985 3.355248,3.946717 0.230874,2.055058 0.901975,5.438915 0.415925,7.428625 -0.291774,1.194358 -1.461648,1.932976 -1.977567,3.017947 -0.484292,1.01849 -0.270308,2.382937 -0.270308,3.482248 4.683464,0 10.051339,0.774437 13.373161,-3.483155 1.154926,-1.480295 0.449249,-2.820937 0.908168,-4.40994 0.510589,-1.767875 2.991689,-3.361978 4.522809,-4.200914 3.38045,-1.852267 6.40073,1.267076 9.70747,-0.117882 2.13491,-0.894139 4.22075,-4.106037 6.07872,-5.583725 0.92602,-0.736464 2.32597,-0.650995 3.09874,-1.537482 0.88105,-1.010725 0.67463,-2.615371 1.64152,-3.575936 0.865,-0.85934 1.92623,-0.03111 2.82019,-0.588762 1.05613,-0.65876 0.74805,-2.457128 1.9679,-3.232358 2.05403,-1.30539 4.72268,-0.851008 6.64851,-2.735299 0.89533,-0.876003 0.52421,-2.197771 0.94223,-3.266761 0.53297,-1.362916 1.48808,-2.526443 2.05384,-3.946547 0.58289,-1.463065 2.31673,-1.829596 3.17667,-3.043056 0.68701,-0.969464 0.44163,-2.22747 1.36409,-3.067879 0.98946,-0.901509 2.45201,-1.237945 3.10964,-2.488811 0.68724,-1.307146 0.0763,-2.60341 -0.0832,-3.937251 -0.21887,-1.829031 0.23906,-3.762064 -0.12253,-5.571597 -0.1882,-0.941861 -0.94147,-1.630319 -1.13762,-2.553648 -0.29246,-1.376632 1.87219,-4.081608 -0.035,-5.076464 -1.35286,-0.705744 -5.02251,1.976448 -6.17651,2.663093 -1.78439,1.061677 -4.29525,2.456616 -5.07201,4.502719 -0.40379,1.063662 0.19103,2.233252 -0.4668,3.22482 -0.61047,0.920212 -1.73253,0.851066 -2.4958,1.537313 -1.70032,1.528754 -2.53399,3.645251 -4.50148,5.10928 -1.6622,1.236867 -3.2412,2.27984 -5.33945,1.559473 -0.93278,-0.320226 -1.78133,-1.079077 -2.78579,-1.153267 -1.35801,-0.100319 -2.36645,1.265658 -3.71441,1.432515 -2.05596,0.254482 -4.78961,-0.86478 -6.73234,-0.194685 -1.12906,0.389429 -2.59592,1.711878 -2.91727,2.877842 -0.21482,0.779481 0.0987,2.073705 -0.68426,2.611515 -0.73127,0.502273 -1.78512,-0.664314 -2.43437,-0.933417 -0.9811,-0.406659 -2.271894,-0.261169 -3.250095,0.112448 -2.583302,0.986637 -4.458026,3.760079 -6.73234,5.282315 -1.277448,0.855033 -2.577043,0.302713 -3.946547,0.707219 -1.66726,0.492411 -2.537397,1.697935 -4.410847,1.738062 M 52.968247,72.443942 c 0.100541,1.913196 -0.197606,4.172463 0.332822,6.026771 0.396798,1.387118 2.198806,2.764314 3.050183,3.955677 1.734875,2.427649 2.617028,5.445316 4.652858,7.618153 1.093531,1.167154 2.686684,1.650999 3.754341,2.838619 1.397121,1.554089 1.005312,4.278511 2.27797,5.569431 2.175838,2.207077 4.836791,1.03873 7.289609,1.803817 2.177765,0.67933 2.825543,2.36537 5.339447,2.36701 0,-4.770347 1.842108,-5.819387 5.339261,-8.66175 0.918341,-0.746376 1.856859,-2.166378 3.019026,-2.501844 0.999176,-0.288432 2.430969,0.02038 3.481354,0.02038 0.217541,-0.579359 0.705262,-1.234038 0.739977,-1.857195 0.139242,-2.499583 -3.279612,-3.258546 -4.677384,-4.46368 -1.490739,-1.285321 -2.390121,-3.135599 -2.693018,-5.054469 -0.353638,-2.240336 -1.052893,-5.220763 -0.299866,-7.428795 0.461141,-1.352147 2.12772,-2.227697 2.154203,-3.714397 0.03116,-1.748492 0.03584,-5.550965 -0.703436,-7.105281 -0.699085,-1.46981 -2.876397,-0.989188 -3.083863,-3.109311 -0.136337,-1.39324 0.706226,-1.928159 1.249237,-3.057339 0.487041,-1.012765 0.358426,-2.196524 0.780813,-3.207306 0.369336,-0.883825 1.153722,-1.387118 1.426041,-2.324899 -1.0573,-0.58916 -2.391013,-1.312871 -3.07777,-2.342469 -1.195422,-1.792247 -0.675721,-4.349352 -3.886725,-4.190543 -2.826025,0.139767 -4.067794,4.497506 -7.428794,3.896048 -1.80439,-0.32289 -1.905772,-2.024056 -3.13367,-2.937296 -1.061436,-0.789456 -5.195145,-0.91783 -6.229164,-0.08937 -2.152458,1.724517 -1.292977,3.912484 -2.036865,6.12794 -0.591271,1.760904 -2.471495,2.95804 -2.960094,4.652121 -0.258138,0.895047 0.443881,1.849434 0.397136,2.776673 -0.04621,0.916357 -0.767381,1.656562 -0.767381,2.553648 0,0.831342 0.734594,1.471851 0.65183,2.321499 -0.06334,0.650201 -0.646871,1.181153 -0.536846,1.857198 0.315437,1.938134 3.442729,2.472034 3.480448,4.509351 0.03525,1.904299 -2.651232,5.077486 -4.651583,4.874297 -1.199687,-0.121859 -2.165028,-1.264015 -3.250097,-1.722704 M 137.23863,47.13961 c -1.20231,1.022117 -2.65731,1.9824 -4.17869,2.450836 -0.93611,0.288204 -2.38935,0.242692 -3.13079,0.935968 -0.78804,0.736803 -0.54532,2.031651 -1.34472,2.810849 -0.89174,0.869202 -2.23484,0.201147 -3.01651,0.916073 -0.86804,0.793936 -0.76007,2.392289 -1.61397,3.307739 -0.95548,1.024384 -2.26414,0.792971 -3.29649,1.557376 -2.1299,1.5771 -3.81908,4.377805 -6.17042,5.594153 -3.39929,1.758468 -6.67351,-1.503873 -9.98154,0.410401 -1.19327,0.690498 -3.07035,1.79253 -3.57431,3.143148 -0.62577,1.677078 0.0641,3.290734 -1.160209,4.874239 -3.508812,4.538314 -8.991061,4.178697 -14.069609,4.178697 0.02073,2.505246 0.374694,5.154793 2.33153,6.930999 1.521967,1.381502 5.508614,2.643145 5.302011,5.372948 -0.07696,1.016947 -1.059906,2.636055 -2.066237,2.917113 -1.061367,0.296423 -2.197744,-0.383366 -3.225033,0.0099 -0.821579,0.314333 -1.452056,1.249674 -2.111014,1.811284 -1.409406,1.20122 -3.380299,2.08391 -4.444697,3.62269 -2.681951,3.877237 0.506864,10.122207 4.90989,10.907647 1.691913,-2.86436 4.910555,-1.83719 7.660944,-2.56634 0.999446,-0.26498 2.199649,-1.55375 3.207283,-0.81701 1.739386,1.27178 1.258827,5.42775 3.525951,5.17231 3.60758,-0.40649 7.11629,-1.64749 10.678,-2.3138 1.1336,-0.21208 2.79818,-1.0212 3.8937,-0.36204 1.0334,0.6218 2.00521,3.68531 1.6976,4.83342 -0.19421,0.72485 -1.06486,1.29326 -0.96675,2.08935 0.10931,0.88735 1.26818,1.73467 1.87565,2.30076 0.75219,0.70093 2.08609,2.32966 3.2365,1.76367 1.54547,-0.76032 0.52222,-2.82778 1.5258,-3.98541 1.40891,-1.62516 3.95945,-0.96057 5.22731,-2.86838 1.66971,-2.51245 1.02778,-5.62941 1.94157,-8.3438 0.39931,-1.18614 1.83134,-1.30986 2.11765,-2.57371 0.38538,-1.701167 -0.40646,-3.675687 0.41825,-5.326007 1.25382,-2.508994 5.41636,-3.062674 6.37052,-5.807151 0.31734,-0.912725 -0.57712,-1.904698 -0.74072,-2.785792 -0.28149,-1.515948 -0.0299,-3.787399 0.12452,-5.33945 0.10326,-1.038328 0.84393,-1.789753 1.01851,-2.785799 0.18067,-1.030675 -0.3077,-1.993167 0.13864,-3.01704 0.5995,-1.375216 2.26411,-2.163482 1.76247,-3.913958 -0.33128,-1.155931 -2.06549,-0.857356 -2.94382,-1.300288 -1.25954,-0.635125 -1.27472,-1.955534 -2.22599,-2.673293 -1.09042,-0.822727 -2.70487,0.193665 -3.66642,-1.198214 -0.93087,-1.347443 1.55576,-3.167463 0.14832,-4.418895 -1.00888,-0.897087 -3.28064,0.904285 -3.84212,-0.914826 -0.277,-0.897484 0.519,-1.937454 0.77153,-2.76052 0.34232,-1.115861 -0.35384,-2.39926 0.26654,-3.447845 0.93864,-1.586452 5.00747,-0.5581 6.62611,-1.527054 1.75503,-1.050625 2.2587,-5.417377 0.99326,-6.864743 M 119.3631,136.74965 c 1.29519,0 3.10378,-0.30186 4.07801,0.76112 1.00281,1.09416 0.81056,3.23802 1.57206,4.57833 0.79631,1.40157 2.19607,2.57398 2.58355,4.17869 0.33367,1.38202 -0.0909,2.78966 -0.10746,4.17869 -0.035,2.93975 0.0268,6.9089 0.76934,9.74118 0.48904,1.8653 3.36464,3.51154 4.49864,5.11642 1.14264,1.61717 0.69239,3.55922 1.88673,5.10729 2.42379,3.14168 5.51673,2.69942 9.09487,3.05717 1.38627,0.13858 3.06885,0.50188 4.41085,-0.0414 0.73258,-0.2966 1.29289,-0.85792 1.8572,-1.39092 0.63571,-0.6005 1.76538,-1.25211 2.01555,-2.13197 0.90108,-3.16916 -1.99039,-6.99522 -0.48992,-10.1718 0.87059,-1.84309 3.73804,-3.51313 3.94477,-5.5716 0.26686,-2.65725 -2.63859,-5.12815 -2.17069,-8.12524 0.3006,-1.92539 3.09149,-2.97447 3.00827,-4.87514 -0.0702,-1.60239 -2.28974,-3.09078 -2.67045,-4.87515 -0.88303,-4.13897 0.19779,-9.40841 1.15735,-13.46469 1.11386,-4.7084 4.42193,-7.15284 6.66196,-11.1432 2.03933,-3.63283 -0.6203,-9.8327 5.0258,-11.18779 2.36717,-0.568127 4.92609,2.93265 7.42879,3.06255 l 2.55365,-4.875137 c -1.059,-0.19662 -2.55067,-6.3e-4 -3.45037,-0.6357 -1.51266,-1.06774 -0.90009,-3.733275 -1.98886,-5.164479 -1.01378,-1.332651 -2.68151,-1.918927 -3.72389,-3.25458 -2.17406,-2.785743 -3.18487,-6.013793 -5.92645,-8.386749 -1.20026,-1.038896 -3.19229,-3.799302 -4.87532,-3.865955 -1.618,-0.0641 -4.01635,2.805806 -5.33945,3.687365 -2.17033,1.446112 -5.52149,1.767992 -7.44832,3.59815 -1.58715,1.507561 -2.32668,4.18114 -3.79428,5.8967 -1.68351,1.967938 -5.19672,3.397734 -6.39435,5.593248 -0.86926,1.59353 -0.0511,3.64269 -0.42989,5.317627 -0.31306,1.38461 -1.63856,1.61881 -2.09578,2.81033 -0.97196,2.53302 -0.5352,5.36869 -1.85097,7.86873 -0.56915,1.0814 -1.43189,1.95887 -2.59428,2.37613 -0.90097,0.3234 -2.43134,0.3315 -3.01152,1.20337 -0.49924,0.75024 -0.12092,1.84865 -0.47289,2.67942 -0.61443,1.45064 -2.76026,1.70983 -2.51601,3.49227 0.20982,1.53114 2.46271,2.56538 2.09757,4.17779 -0.30995,1.36865 -1.70312,2.63844 -2.29282,3.94655 -0.95742,2.12387 -1.00098,4.44202 -1.00098,6.73234 M 58.771992,89.390877 c -0.756981,1.308739 -1.995122,1.960923 -2.878763,3.119851 -0.663421,0.870113 -0.557265,2.028485 -1.378928,2.863005 -0.884831,0.89867 -2.522788,0.77488 -3.154625,1.98013 -0.394431,0.75239 0.15983,1.66268 -0.150279,2.48376 -0.464711,1.230397 -1.938305,1.982617 -2.153309,3.270837 -0.316316,1.89523 0.332227,4.50777 -0.572482,6.2464 -0.858788,1.65032 -2.379975,1.61779 -3.872754,2.25343 -0.868578,0.36987 -1.469314,1.14255 -2.321498,1.54586 -1.894606,0.8967 -3.810678,0.5377 -5.803746,0.38031 0.645156,2.03098 1.766813,3.992 2.265968,6.0359 0.741764,3.03733 0.765583,6.23409 1.461862,9.27687 0.279433,1.2211 1.292269,1.92283 1.369435,3.25921 0.144541,2.50322 -1.858219,8.21304 -0.02633,10.07449 1.62162,1.64778 3.625741,-1.21102 5.143655,-1.16557 1.438157,0.0431 2.415527,1.62421 3.946548,1.74793 3.234213,0.26145 6.672494,-0.90655 9.982442,-0.90655 1.966515,0 3.15668,0.40179 4.875147,1.36048 1.025701,0.57221 2.470758,1.72344 3.714397,1.53584 1.68619,-0.25437 2.30801,-2.15867 3.71529,-2.85386 1.708492,-0.84404 3.264013,0.6376 4.732746,-1.21341 1.132849,-1.4277 1.351978,-4.03643 2.614363,-5.18914 0.847919,-0.77421 2.319033,-0.15308 3.329998,-0.54455 1.371546,-0.53106 3.169035,-3.28564 3.476877,-4.70285 0.172526,-0.79428 -0.213942,-1.73483 -0.224994,-2.55365 -0.02894,-2.14245 0.47871,-4.88813 -0.101381,-6.95537 -0.348622,-1.24236 -1.4398,-1.85056 -1.514359,-3.25923 -0.04757,-0.8986 0.01366,-1.96992 0.486517,-2.76159 0.560099,-0.93778 1.796569,-1.27829 1.398993,-2.57802 -0.730117,-2.38685 -2.770113,-2.56255 -4.439327,-4.02267 -1.297144,-1.13467 -2.142726,-2.99845 -2.79583,-4.5667 l -3.246697,-0.40428 -2.328301,-1.79792 -3.014546,0.0166 -5.072908,-2.155267 -1.676809,-4.944117 -5.322074,-4.87606 h -0.4643 m 37.366817,17.176254 c -0.72995,0.16181 -1.331039,0.69316 -2.080043,0.85582 -1.789739,0.38875 -5.127799,-0.21882 -6.425495,1.27077 -1.368627,1.57097 1.245325,2.95135 0.644675,4.5993 -0.383704,1.05272 -1.609037,1.40049 -1.827103,2.56634 -0.43334,2.31667 1.156499,3.11396 1.519006,5.1039 0.41278,2.26589 -1.087636,6.11105 0.126815,8.05501 0.46651,0.74672 1.589158,0.88984 2.213316,1.51277 0.798681,0.79712 0.378661,1.8173 0.969435,2.59967 0.535401,0.70904 1.553877,0.6544 2.044573,1.53959 1.252241,2.25904 0.586199,4.9571 3.104994,6.81418 2.440469,1.79933 6.2768,-0.74208 8.77298,-0.74513 2.63747,-0.004 4.37375,1.47304 7.19663,0.76593 1.77728,-0.4452 5.1151,-1.80051 5.86357,-3.61606 0.90235,-2.18882 0.0348,-5.03968 0.87235,-7.40783 0.47739,-1.34987 2.78261,-3.74346 2.3964,-5.10729 -0.31602,-1.11603 -1.58457,-1.69686 -1.99532,-2.78579 -0.40161,-1.0648 0.3243,-2.14626 -0.47935,-3.08081 -1.18484,-1.37782 -3.35923,-2.38061 -4.08413,-4.11584 -0.41561,-0.99486 0.5999,-1.70014 0.90246,-2.55366 0.3424,-0.96582 -0.23569,-3.0668 -0.94222,-3.80303 -0.75688,-0.78867 -3.01946,0.25408 -3.92666,0.45443 -2.64135,0.58339 -5.25313,1.28046 -7.89308,1.87455 -1.00182,0.22547 -2.46905,0.76072 -3.478677,0.40196 -1.841768,-0.65446 -1.307294,-5.68376 -3.495139,-5.19878 m -15.312571,29.48586 c -0.474827,2.2943 -1.784396,5.64511 -4.178697,6.56005 -1.10981,0.42411 -2.405125,-0.12758 -3.482247,0.41091 -1.290327,0.6451 -2.390077,2.87444 -3.967319,2.85653 -2.1978,-0.0249 -4.270089,-2.23853 -6.247273,-2.97833 -1.163555,-0.43539 -2.942567,-0.16176 -4.178697,-0.10771 -2.789553,0.12204 -5.561309,1.23081 -8.357394,0.96856 -1.398185,-0.13115 -2.621292,-1.70253 -3.946547,-1.56701 -2.037121,0.20834 -2.72273,1.85345 -5.107297,1.28578 -1.875208,3.92546 5.327842,5.623 7.428794,7.47157 0.771775,0.67905 1.43229,1.5461 2.321499,2.07972 0.892879,0.53577 1.941195,0.49054 2.765027,1.19227 2.2394,1.90753 3.902239,5.86552 7.217416,6.06327 1.092694,0.0652 1.667826,-1.03736 2.553648,-1.47848 1.040863,-0.51837 2.195803,-0.18381 3.250098,-0.83367 1.813344,-1.11773 3.581589,-3.67008 5.803745,-3.93295 2.094195,-0.24773 4.688226,2.51012 6.500196,3.36725 1.104539,-2.55767 2.264155,-2.48155 4.177804,-0.6757 2.013869,1.90044 0.512064,2.43139 0.815216,4.62225 0.236996,1.71278 1.541904,4.08059 2.788122,5.26565 0.984185,0.93586 2.444489,0.26168 3.5942,0.80839 1.798623,0.85526 2.974745,2.72254 4.875147,3.44535 1.465385,0.5573 3.228709,0.0477 4.193027,1.63401 0.558499,0.91873 0.596919,2.20837 0.833309,3.23989 0.84672,3.69484 3.01231,11.59882 8.43836,9.83321 1.71349,-0.55754 2.59584,-2.89161 3.52739,-4.26161 1.27572,-1.87613 3.51112,-3.70687 4.3313,-5.80374 0.91477,-2.33869 0.65128,-5.27966 1.59962,-7.65664 1.07671,-2.69874 5.09798,-0.3026 6.5104,-2.36021 0.64075,-0.93342 0.56091,-1.9701 0.90908,-2.98356 0.29866,-0.86937 1.18866,-1.47133 1.38001,-2.36088 0.55285,-2.57031 -0.75376,-5.5211 -0.83653,-8.08586 -0.0621,-1.9264 0.70362,-4.14163 0.0911,-6.03589 -0.41548,-1.28505 -1.60317,-2.31311 -2.26562,-3.48225 -0.60009,-1.05907 -0.70307,-3.77782 -1.6238,-4.40528 -2.15905,-1.47146 -3.74015,0.74989 -5.26565,1.84234 -2.45435,1.75762 -5.27515,3.02611 -8.35739,2.77344 -1.38593,-0.11363 -2.52156,-0.98188 -3.94654,-0.88439 -2.48086,0.16969 -6.688212,2.28211 -9.029486,0.54274 -1.189468,-0.88365 -2.716224,-3.32321 -3.126326,-4.744 -0.229954,-0.79664 0.05072,-1.74729 -0.288218,-2.50059 -0.400566,-0.89029 -1.636228,-0.67361 -2.139861,-1.49901 -0.603599,-0.98924 0.149089,-2.68184 -1.429612,-2.99946 -1.293644,-0.26027 -2.2084,2.21624 -2.800676,3.05251 -1.410214,1.99119 -2.94533,2.76387 -5.329415,2.3215 M 44.146464,149.7499 c -0.413234,2.81075 -1.226311,6.04588 -2.509412,8.58955 -0.712362,1.41223 -2.156668,2.61361 -2.506167,4.17869 -0.6068,2.71735 1.419991,5.90436 0.513197,8.58955 -0.469286,1.38962 -1.754484,2.35047 -2.266152,3.7144 -0.44809,1.19447 0.205228,2.47832 -0.0437,3.71439 -0.186921,0.92816 -0.906566,1.61366 -1.046658,2.55365 -0.628493,4.21696 1.876881,6.51091 5.537392,8.04092 1.748945,0.73102 3.752541,0.0504 5.571596,0.36931 0.750504,0.1316 1.523724,0.89254 2.300541,0.70222 0.850272,-0.20835 1.233198,-1.27302 1.918453,-1.74328 0.913551,-0.6269 3.804159,-0.41669 4.833956,-0.0324 1.129719,0.42156 1.805113,1.71244 2.787583,2.39183 3.055823,2.11309 5.381147,2.8075 9.052951,2.8075 v -2.55364 l 3.946547,1.85719 c 0.188679,-2.14755 2.483072,-3.39155 2.519259,-5.33943 0.0264,-1.42108 0.108965,-3.77545 -0.366687,-5.10731 -0.825177,-2.31055 -3.770875,-4.33994 -1.882263,-7.12625 0.976406,-1.44051 5.166779,-0.83236 6.694186,-0.75754 1.776208,0.087 2.984976,1.32993 4.642997,1.72429 2.199544,0.52312 5.173792,0.25618 7.427902,0.11339 1.568017,-0.0993 1.91817,-1.58045 3.254391,-2.10387 1.438435,-0.56343 3.156786,-0.006 4.639595,0.0247 -0.513192,-2.59139 -1.988763,-1.606 -3.946546,-2.44505 -1.796866,-0.77008 -2.930354,-2.51721 -4.642996,-3.35313 -1.859055,-0.90741 -3.20589,0.075 -4.754949,-1.86367 -1.108876,-1.3878 -2.294903,-3.32854 -2.59736,-5.10639 -0.437648,-2.57252 0.873977,-3.9903 -2.165835,-5.5716 l -1.160749,2.55365 c -2.386535,-0.46147 -4.904888,-3.961 -7.428795,-3.37886 -2.09214,0.48255 -3.702651,2.90595 -5.571595,3.92398 -0.936973,0.51039 -2.047408,0.14629 -2.951664,0.65717 -1.095769,0.6191 -1.631396,1.91933 -3.084232,1.64048 -3.180838,-0.61058 -4.960162,-3.63624 -7.063014,-5.84711 -0.952106,-1.00098 -2.285763,-1.00619 -3.383728,-1.7868 -2.257496,-1.60499 -3.395051,-3.48702 -6.268046,-4.03055 m 105.860308,45.50137 c 1.55933,-3.33494 4.79589,-4.1464 7.66095,-6.03589 -0.43444,-1.71863 -2.23094,-3.0867 -2.27475,-4.87515 -0.0367,-1.49928 1.6048,-2.94228 1.18439,-4.41085 -0.33807,-1.18104 -1.68331,-1.78908 -1.99818,-3.01795 -0.49125,-1.91716 1.51462,-3.7021 -0.48434,-5.48851 -1.67849,-1.50001 -4.19955,2.22464 -5.48097,2.89672 -2.54636,1.33554 -7.45535,0.12379 -10.21458,-0.21498 -5.41566,-0.66482 -5.2843,-7.34911 -8.3574,-10.42577 -0.56317,-0.56383 -1.27779,-1.56899 -2.08577,-1.77694 -0.80137,-0.20625 -1.21258,0.68313 -1.34703,1.31281 -0.28103,1.31632 -0.55044,3.16826 -1.92849,3.82707 -1.42178,0.67973 -3.94494,-0.14957 -5.14527,0.82222 -0.55685,0.45081 -0.37518,1.45841 -0.55243,2.08289 -0.55215,1.94521 -0.52093,4.49439 -1.4943,6.26804 -1.96865,3.58722 -5.37737,6.52026 -7.40533,10.08095 -0.84004,1.47497 0.74332,2.66927 0.5458,4.08019 -0.15388,1.09915 -1.32823,1.72016 -1.61196,2.78581 -0.35686,1.34035 0.73676,2.21772 0.81072,3.48224 0.0827,1.41534 -1.25075,2.61593 -1.01869,3.94655 0.21937,1.25777 1.61482,1.80228 2.25629,2.79492 0.82752,1.28056 -0.13569,3.51602 1.60822,4.26178 5.2124,2.22906 6.42608,-3.94977 10.17177,-5.28928 1.2507,-0.44725 4.58374,-1.4616 5.80357,-1.15157 1.54553,0.39277 2.83036,1.92866 4.41085,2.08181 0.87467,0.0847 1.71998,-0.49009 2.55365,-0.68246 1.34154,-0.3095 2.86304,-0.11338 4.16509,-0.52307 1.97049,-0.61998 0.68551,-4.62474 1.63595,-6.10073 0.93858,-1.45752 6.9851,-0.98664 8.59224,-0.73085 m -76.841579,-19.50059 0.217825,3.48225 1.931347,2.7858 0.562832,6.03589 -2.479854,5.33945 7.196645,0.18324 4.179589,2.35998 5.338554,-1.83656 5.339446,0.0819 2.321494,-1.80093 1.890161,-0.72246 0.70505,-3.34803 3.00395,-2.81035 -1.8124,-3.48207 -2.161713,-6.73235 c -1.35318,-9e-4 -3.126681,-0.56076 -4.407441,-0.0599 -1.118694,0.43754 -1.5928,1.7197 -2.789383,2.04854 -1.982157,0.54472 -4.680248,0.12492 -6.732161,0.0998 -1.99671,-0.0245 -3.280775,-1.14822 -5.107296,-1.67305 -2.07321,-0.59574 -5.097519,-0.3408 -7.196645,0.0489 m 37.376119,30.41163 -2.72919,-5.5716 1.0058,-3.48225 -0.82471,-3.48225 1.53298,-3.25009 -0.84207,-3.7144 c -2.58607,-0.0532 -5.82404,-0.93472 -7.28873,2.17981 -0.53773,1.1434 -0.0584,2.47526 -0.98788,3.54403 -0.823873,0.94741 -2.183217,0.60389 -3.044832,1.50721 -1.377389,1.44408 0.234851,3.14264 0.712768,4.60859 0.223574,0.68579 0.0646,1.62108 0.593266,2.1814 0.864123,0.9159 2.645648,-0.0907 3.746458,0.44622 1.03097,0.50283 1.42042,1.71839 2.39207,2.23178 0.70184,0.37083 1.49915,-0.13309 2.23105,0.16458 1.29522,0.52676 2.21376,1.97877 3.50302,2.63697 M 69.218734,192.46541 c -0.02523,2.13424 -1.17095,2.08945 -3.017948,2.08934 -2.954384,-1.7e-4 -5.364157,-1.26492 -7.660944,-3.10591 -0.816861,-0.65474 -1.550617,-1.87085 -2.593053,-2.15974 -1.411333,-0.39108 -4.588899,-0.40627 -4.826063,1.55142 -0.153667,1.2685 1.533202,2.44058 1.746138,3.71423 0.304613,1.82207 -1.7091,3.15058 -1.766217,4.87514 -0.129649,3.91454 5.030258,2.21484 6.741854,3.06041 2.037304,1.00647 2.439046,2.9675 5.103711,2.72974 1.627018,-0.14521 0.95569,-1.75132 1.768711,-2.6984 0.738943,-0.86082 2.799684,-0.63893 3.807362,-0.46181 1.892693,0.33264 2.625174,1.83351 3.955856,2.99863 1.284192,1.12441 2.83933,1.75212 4.169203,2.79599 0.448502,0.35208 0.927594,0.72395 1.298149,1.16001 1.931361,2.2727 -1.594032,4.46651 -1.579197,6.66593 0.01662,2.46461 1.752163,4.29279 2.416972,6.5002 0.510449,1.69487 0.109496,6.17211 -0.430082,7.89309 -0.391638,1.24911 -1.591892,1.89517 -2.164402,3.01794 -0.531278,1.0419 -0.326943,2.57094 -0.43062,3.7144 -0.071,0.78316 -0.26736,2.27397 0.525738,2.77021 0.876371,0.54835 2.405041,-0.33887 3.149425,-0.78872 2.653895,-1.60373 4.735876,-3.00338 7.700349,-3.92611 2.920095,-0.90891 7.181243,1.32233 9.802959,-1.24566 1.449719,-1.42001 1.303576,-5.01678 2.465703,-6.79217 1.238682,-1.89231 3.436052,-3.65457 2.409442,-6.24729 -1.14081,-2.88114 -5.616827,-3.59481 -5.883089,-7.21739 -0.156888,-2.13447 1.021419,-2.99533 1.512539,-4.87514 0.321757,-1.23155 -0.104987,-2.48258 -0.07213,-3.71441 0.08226,-3.08545 0.252365,-6.05953 -1.549112,-8.78729 -0.639216,-0.96788 -1.909918,-0.73085 -2.921932,-0.73085 -1.167309,0 -2.585585,-0.2139 -3.714398,0.11919 -1.429285,0.42167 -2.363765,1.56916 -3.946547,1.69419 -2.073506,0.16375 -2.680689,-1.80619 -4.411738,-2.35823 -2.454208,-0.7827 -5.159171,-0.0934 -7.660053,-0.4274 -1.479515,-0.19763 -2.552727,-1.36937 -3.946546,-1.81349 m 88.216926,-2.08936 -4.86511,2.87376 -2.57301,2.72256 -7.88377,0.43958 c 0,1.9476 0.24609,5.11369 -1.62952,6.30188 -1.32027,0.83634 -3.15015,0.66596 -4.63852,0.92934 -0.92788,0.16419 -1.83166,0.89142 -2.78579,0.77761 -1.82518,-0.2177 -3.19118,-2.23048 -5.10729,-2.16729 -1.0879,0.0358 -4.59948,0.74061 -5.48115,1.37585 -0.9326,0.67191 -1.50724,1.89562 -2.41212,2.66315 -0.98205,0.83299 -2.54988,1.59653 -3.20836,2.72526 -0.34766,0.59596 -0.27261,1.35702 -0.27373,2.01964 -0.001,0.61744 -0.0224,1.24015 0.005,1.85702 0.15096,3.4661 4.94714,0.47111 6.92902,1.30121 1.25829,0.52704 0.86835,2.27835 1.00259,3.34197 0.33411,2.64711 2.27936,3.63524 0.42131,6.26804 v 0.23215 c 1.67125,1.67124 2.97283,3.06502 3.71439,5.33945 1.7003,-0.25469 3.74991,-1.43873 3.94655,1.16074 h 0.23216 l 1.42389,-2.74423 5.16497,-1.35367 0.37562,-4.25949 c 1.23387,0.21299 2.50734,0.17641 3.7144,0.63448 0.67478,0.25607 1.31293,0.98941 2.08934,0.71775 2.16765,-0.75839 2.10492,-3.9502 2.78581,-5.76308 -0.6986,-0.48152 -1.54672,-0.96555 -1.74651,-1.86059 -0.22178,-0.99362 0.48291,-2.0244 0.56408,-3.01455 0.18559,-2.26369 0.0126,-4.37406 -0.76415,-6.5002 -0.30467,-0.83388 -0.51457,-1.74667 0.19006,-2.45299 1.36041,-1.36359 3.81316,0.0882 5.47092,-0.50171 6.13604,-2.18354 8.35608,-7.43258 5.33944,-13.06364 m -58.734397,11.60745 c -0.04039,1.9536 0.293916,4.6503 -0.200082,6.5002 -0.59323,2.2214 -2.889656,4.40744 -0.926275,6.73234 0.990601,1.17299 3.686744,4.27306 5.305054,4.38397 0.92078,0.0631 1.69742,-0.994 2.55364,-1.24689 2.48691,-0.73448 7.62927,-1.22921 7.8931,1.97021 1.99744,-0.46361 3.99745,-2.59536 4.41085,-4.64299 -2.74153,-0.81656 -2.65002,-4.14526 -2.08935,-6.50021 l -3.46057,-0.53809 -5.3819,-4.05904 -2.26042,-0.0616 -2.59484,-2.39761 -3.249207,-0.14027 m 19.964887,13.69684 c -0.163,1.46369 -1.78046,4.02237 -3.02242,4.84419 -1.80283,1.19294 -3.4215,0.96487 -3.47777,-1.36195 l -6.73236,0.35129 -2.55364,1.27376 c 0,3.70567 -2.34676,5.46753 -3.483136,8.82169 -0.261839,0.77282 -1.201911,2.12746 -0.970345,2.94507 0.172501,0.60901 1.698771,1.13453 2.198271,1.56539 4.22444,3.64386 7.6772,2.22385 12.70195,2.22188 1.3774,-5.3e-4 3.87913,0.54425 5.1073,-0.0156 1.28458,-0.58556 2.38415,-2.04202 3.48225,-2.93018 1.75775,-1.42172 3.77824,-2.56512 5.80374,-3.55443 l -1.7336,-3.47884 -1.86902,-2.10187 0.74876,-2.77668 -1.17668,-3.01795 -0.14815,-3.48224 -4.87515,0.69645 m 21.82208,7.42879 c 0.0483,1.12442 0.57949,2.64258 -0.006,3.68932 -1.10182,1.96839 -4.06978,1.21918 -5.72441,2.02236 -0.57361,0.27843 -2.00918,2.779 -2.25111,3.40845 -0.58975,1.53453 0.59262,3.19025 0.94815,4.57671 0.61461,2.39682 0.35124,4.78299 0.30147,7.19665 2.32138,0 4.64313,-0.0111 6.96448,1.7e-4 0.8246,0.004 1.96756,0.36242 2.74638,0.0828 1.89881,-0.68183 3.02513,-3.29873 4.91457,-4.22098 1.00401,-0.49006 3.28791,0.37535 3.94012,-0.41629 1.81675,-2.20514 -2.74893,-4.33113 0.23965,-6.43751 1.80467,-1.27195 4.6788,-1.34399 6.73128,-0.77939 0.71668,0.19714 2.40716,1.02979 2.87786,0.0891 0.55464,-1.10856 0.76555,-4.8713 0,-5.88579 -0.76477,-1.01348 -2.22095,-1.37102 -2.76466,-2.59304 -0.41371,-0.92988 -0.0583,-2.33144 0.11895,-3.28611 -0.81689,0.47152 -1.78335,1.58866 -2.78581,1.49338 -2.49087,-0.23677 -3.82574,-4.60327 -6.26481,-4.16254 -2.16465,0.39112 -1.60232,2.33232 -1.98886,3.8299 -0.28826,1.11682 -1.78079,2.70866 -2.88952,3.05699 -1.09526,0.34409 -3.76764,-1.48975 -5.10729,-1.66409 m -36.44752,14.39329 c 0.41822,1.69763 -0.028,4.4966 1.43679,5.66744 1.21225,0.96892 3.97174,0.45787 5.5277,0.9356 1.24393,0.38194 2.21654,1.37635 3.48225,1.66299 3.53315,0.80012 7.74834,0.0914 11.37535,0.0914 1.9924,0 4.92476,0.15733 6.4264,-1.45666 0.86559,-0.93039 0.55113,-2.71065 0.53718,-3.88278 -0.0253,-2.13222 -0.91837,-3.60351 -1.31227,-5.5716 -0.33962,-1.69672 -0.0937,-3.40423 -0.0797,-5.1073 -3.1833,0.47014 -6.31409,2.22932 -8.82169,4.18193 -1.2906,1.00494 -2.64853,2.68772 -4.1787,3.27158 -1.49979,0.57227 -3.53567,-0.009 -5.1073,-0.006 -1.88882,0.002 -3.68759,0.72706 -5.5716,0.74536 -1.27181,0.0124 -2.4437,-0.50173 -3.71439,-0.53148 m -16.71479,-1.85721 -3.946546,1.41368 -6.500196,3.69363 2.553649,5.33943 c 3.316764,-0.0498 2.782354,2.88363 3.952994,4.7881 0.941096,1.53103 2.887434,2.46994 3.91502,4.0336 1.352814,2.05861 1.112149,4.24048 1.650129,6.50021 1.013515,-0.63395 1.90023,-1.77115 3.017947,-2.18143 3.020953,-1.10895 7.51806,-1.00386 10.678893,-0.60438 2e-4,-1.78888 0.58042,-3.82523 0.0842,-5.5716 -0.47245,-1.66264 -1.94312,-2.94327 -2.27296,-4.643 -0.30005,-1.54623 0.29478,-3.30234 0.21316,-4.87514 -0.0531,-1.02288 -0.880028,-1.7706 -1.011361,-2.78579 -0.198736,-1.53616 1.024181,-5.57608 -0.559955,-6.48929 -0.909243,-0.52415 -3.578474,1.0288 -4.578328,1.37482 -1.931871,0.66854 -5.224718,0.47668 -7.196645,0.007 m 13.464689,0 -0.16175,5.1073 1.07422,2.7858 -0.11894,5.1073 1.99225,3.94655 c 2.39399,-0.57001 5.7751,0.66488 7.89203,-0.67175 1.43424,-0.90555 2.21645,-3.57335 2.78686,-5.13201 -1.22297,-0.46352 -2.20034,-1.36503 -3.48224,-1.70187 -2.05689,-0.54047 -4.69213,0.0441 -6.22434,-1.57007 -2.38824,-2.51608 -0.12604,-5.98676 -3.7581,-7.87125 m 3.01794,17.64339 -0.11302,5.80375 2.87806,4.41084 0.48508,5.5716 h 2.78579 c 0,-1.76561 -0.69713,-5.45376 0.40448,-6.91147 1.18044,-1.56202 5.54994,-0.75398 7.25647,-0.58469 1.42676,0.14155 1.99045,-0.93854 3.2501,-1.25173 2.07475,-0.51589 5.25088,0.24127 7.12285,-1.00884 1.12813,-0.75338 0.28103,-3.04521 0.73728,-4.17226 0.65341,-1.61403 2.47465,-2.41286 3.24149,-3.94654 0.71163,-1.42332 0.27372,-3.77847 0.27372,-5.33945 -3.78199,1.03226 -7.44864,0.96388 -11.37534,1.05507 -1.41294,0.0329 -3.283,-0.32394 -4.6421,0.053 -2.2804,0.63243 -1.93745,3.90965 -3.49336,5.24828 -2.46534,2.12113 -5.85979,1.07245 -8.81149,1.07245 m 2.3215,16.01834 c -0.85961,-3.6105 0.0209,-6.00898 -2.9411,-8.98917 -0.9252,-0.93087 -2.13766,-0.68736 -3.326933,-0.80054 -3.026288,-0.28804 -8.955357,0.077 -10.67245,3.10019 -0.466525,0.82138 -0.219412,2.06744 -0.241998,2.97513 -0.05025,2.01929 -1.107671,6.17699 1.903419,7.01357 1.328897,0.36922 3.795516,-1.2208 5.064481,-1.65586 3.393906,-1.16358 6.630411,-1.64332 10.214581,-1.64332 m 4.643,-6.96449 0.23215,6.73234 19.50059,0.4643 c 0.85044,-3.58899 0.2184,-6.04675 -1.62505,-9.28599 l -7.89309,1.00239 -2.55365,1.28471 z"
       id="path1" /></g></svg>
